<?xml version="1.0" encoding="utf-8"?>
<!-- Generator: Adobe Illustrator 28.0.0, SVG Export Plug-In . SVG Version: 6.00 Build 0)  -->
<svg version="1.1" id="eF3qHPTQ18t1" shape-rendering="geometricPrecision" text-rendering="geometricPrecision"
	 xmlns="http://www.w3.org/2000/svg" xmlns:xlink="http://www.w3.org/1999/xlink" x="0px" y="0px" viewBox="0 0 1347 473"
	 style="enable-background:new 0 0 1347 473;" xml:space="preserve">
<style type="text/css">
	.st0{fill:none;stroke:#94E4FF;stroke-width:10.2349;stroke-linecap:round;stroke-linejoin:round;stroke-miterlimit:4.094;}
	.st1{fill:none;stroke:#FF94BB;stroke-width:10.2349;stroke-linecap:round;stroke-linejoin:round;stroke-miterlimit:4.094;}
	.st2{fill:none;}
</style>
<g transform="matrix(1.023491 0 0 1.02349-380.600434-815.012411)">
	<g transform="translate(7 5)">
		<path id="eF3qHPTQ18t4" class="st0" d="M390.1,964.6c31.2,0.3,65.5-13.9,131.4-55.2s149.9-71.8,220.7-68.7s102.2,18.9,127.8,30.4
			s52-16.3,39.9-21s-40.7,16.3-51.5,47.8s-29,133.9-80.5,140.1s-135.7-128.6-284.8-75.8c0-1.2,28.2-23.1,122.1-33.9
			S725.4,946,830,952.8c120.5,1.7,119.5-93,119.5-93s-92.7,170.2-64.7,185.7c27.8,13.7,55-61.6,65.9-94c0,1.3-47.5,90.1-12.3,94.6
			c30.8,6.5,51.4-73.2,59-96c0,0-44.3,98.5-14.3,95.3c13.2,0.5,28.2-21.3,32.3-36.3c3.8-15.2,33-34,40.7,0.6c0,0-4.5-25.8-26.1-17.5
			c-20.5,9.3-23.1,53.8,12.2,53.2c36.1-1.7,40.4-32.6,32.2-49.6s-31.8-57.9-9.2-59.1s-16.8,43.2-16.8,43.2s37.6-44.4,16.8-43.1
			s-2.4,35,9.2,59c7.7,16,4.7,30.1-9.2,42.4c15.3,5.9,25.6,1.1,30.8-14.2c12.1-41,34.7-99.2,36.3-105.3s-63.3,141.1-21.8,126.7
			c13.6-1.1,25.7-15.8,36.3-44.1"/>
		<path id="eF3qHPTQ18t5" class="st1" d="M1155.5,943.8c-10.5,10-23.6,14.6-39.3,13.6c-23.5-1.5-26.5-11.6-28-23.6
			s16.8-31,31.6-33.3s97.8-8.4,115.4-26.4s-13.4-25.2-21.4-5.7s-81.1,266.5-97.6,282.2s-27.4,18.1-36.6,13.7s-16.5-17.1-7.4-26.5
			c6.9-7.1,25.3-20.3,62.5,31.1s95.2,40.6,94.8,24.3"/>
		<path id="eF3qHPTQ18t6" class="st0" d="M1191.8,1001.3c34.9-7.6,53.4-19.4,55.4-35.4c2.8-22.2-42.1-19.8-54.8,28.2
			c-9,34.1-6,52.7,19.9,51.4s37.8-18.8,47.3-43.5"/>
		<path id="eF3qHPTQ18t7" class="st0" d="M1138.5,1143.2c-2.3,9.2,17.2,21.1,25.1-5.7c9.5-43.2,46.2-101.1,63.6-57.7
			c-16.3-38.8-47.8,8.3-54.1,26.6c-6.8,14.2-14.7,58.2,12.2,50.5s48.9-79.7,51.6-93.9c-11.4,46.3-39.4,93-15.8,95.2
			s53.2-81.1,55.6-94.1c0,1.5-48.7,97.7-9.1,94.5s49.7-78.8,55-95.4c0,0.9-45.9,99.5-11.8,93.2s47.2-79.4,51.8-92.4
			s-33,94.1-33,94.1s20.5-93.3,57.3-94.1c45.3,2.9-28.9,91.4,8.3,93.1s29.6-80.2,77-93.1c14.4,1,17.8,11.6,10.2,31.7
			c7.6-20.1,4.2-30.7-10.2-31.7c-22.9,0-72.6,90.7-21.3,94.1s76.4-119.4,79.7-128.8c0,0-43.6,121.1-45.5,127.7
			c3,9.1,22.5-103.9,61-91.9s-52.5,94.3,29.1,95c19.6,0.6,60.2-4.1,77.8-72.7s-38-151.3-42.3-153.7s-40.8,72.4-32.3,88.4
			c8.5,16,77.3-44,79.1-54.3s-88.9-15.6-100.4-0.9s65.3,51.6,77.3,51.1"/>
	</g>
	<g>
		<path id="eF3qHPTQ18t9" class="st1" d="M394.9,967.1c31.2,0.3,65.5-13.9,131.4-55.2s149.9-71.8,220.7-68.7s102.2,18.9,127.8,30.4
			s52-16.3,39.9-21s-40.7,16.3-51.5,47.8s-29,133.8-80.5,140.1S647.1,912,498,964.9c0-1.2,28.2-23.1,122.1-33.9
			s110.1,17.5,214.7,24.3c120.5,1.7,119.5-93,119.5-93s-92.7,170.2-64.7,185.7c27.8,13.7,55-61.6,65.9-94c0,1.3-47.5,90.1-12.3,94.6
			c30.8,6.5,51.4-73.2,59-96c0,0-44.3,98.5-14.3,95.3c13.2,0.5,28.2-21.3,32.3-36.3c3.8-15.2,33-34,40.7,0.6c0,0-4.5-25.8-26.1-17.5
			c-20.5,9.3-23.1,53.8,12.2,53.2c36.1-1.7,40.4-32.6,32.2-49.5s-31.8-57.9-9.2-59.1s-16.8,43.2-16.8,43.2s37.6-44.4,16.8-43.1
			s-2.4,35,9.2,59c7.7,16,4.7,30.1-9.2,42.4c15.3,5.9,25.6,1.1,30.8-14.2c12.1-41,34.7-99.2,36.3-105.2s-63.3,141.1-21.8,126.7
			c13.6-1.1,25.7-15.8,36.3-44.1"/>
		<path id="eF3qHPTQ18t10" class="st0" d="M1160.3,946.3c-10.5,10-23.6,14.6-39.3,13.6c-23.5-1.5-26.5-11.6-28-23.6
			s16.8-31,31.6-33.3s97.8-8.4,115.4-26.4s-13.4-25.2-21.4-5.7s-81.1,266.5-97.6,282.2s-27.4,18.1-36.6,13.7s-16.5-17.1-7.4-26.5
			c6.9-7.1,25.3-20.3,62.5,31.1s95.2,40.6,94.8,24.3"/>
		<path id="eF3qHPTQ18t11" class="st1" d="M1196.6,1003.8c34.9-7.6,53.4-19.4,55.4-35.4c2.8-22.2-42.1-19.8-54.8,28.2
			c-9,34.1-6,52.7,19.9,51.4s37.8-18.8,47.3-43.5"/>
		<path id="eF3qHPTQ18t12" class="st1" d="M1143.3,1145.6c-2.3,9.2,17.2,21.1,25.1-5.7c9.5-43.2,46.2-101.1,63.6-57.7
			c-16.3-38.8-47.8,8.3-54.1,26.6c-6.8,14.2-14.7,58.2,12.2,50.5s48.9-79.7,51.6-93.9c-11.4,46.3-39.4,93-15.8,95.2
			s53.2-81.1,55.6-94.1c0,1.5-48.7,97.7-9.1,94.5s49.7-78.8,55-95.4c0,0.9-45.9,99.5-11.8,93.2s47.2-79.4,51.8-92.4
			s-33,94.1-33,94.1s20.5-93.3,57.3-94.1c45.3,2.9-28.9,91.4,8.3,93.1s29.6-80.2,77-93.1c14.4,1,17.8,11.6,10.2,31.7
			c7.6-20.1,4.2-30.7-10.2-31.7c-22.9,0-72.6,90.7-21.3,94.1s76.4-119.4,79.7-128.8c0,0-43.6,121.1-45.5,127.7
			c3,9.1,22.5-103.9,61-91.9s-52.5,94.3,29.1,95c19.6,0.6,60.2-4.1,77.8-72.7s-38-151.3-42.3-153.6s-40.8,72.4-32.3,88.4
			c8.5,16,77.3-44,79.1-54.3s-88.9-15.6-100.4-0.9s65.3,51.6,77.3,51.1"/>
		<path id="eF3qHPTQ18t13" class="st2" d="M1643.2,1001.8l10.1-9.3"/>
		<path id="eF3qHPTQ18t14" class="st2" d="M1584.4,968.4c10.4-1.2,17.7-1.6,21.6-1.3"/>
		<path id="eF3qHPTQ18t15" class="st2" d="M1593.6,995.5c-1.2,3.6-2.1,6.5-3.1,10.9"/>
		<path id="eF3qHPTQ18t16" class="st2" d="M1604.3,1012.9c10.4,4.8,16.6,7.6,18.7,8.3c2.1,0.7,2,1.2-0.2,1.6c-10-4.3-15.9-7-17.7-8
			C1603.2,1013.7,1603,1013.1,1604.3,1012.9L1604.3,1012.9z"/>
	</g>
</g>
</svg>
