<?xml version="1.0" encoding="utf-8"?>
<!-- Generator: Adobe Illustrator 28.0.0, SVG Export Plug-In . SVG Version: 6.00 Build 0)  -->
<svg version="1.1" id="star" shape-rendering="geometricPrecision" text-rendering="geometricPrecision"
	 xmlns="http://www.w3.org/2000/svg" xmlns:xlink="http://www.w3.org/1999/xlink" x="0px" y="0px" viewBox="0 0 1024 1024"
	 style="enable-background:new 0 0 1024 1024;" xml:space="preserve">
<style type="text/css">
	.st0{fill:none;stroke:#94E4FF;stroke-width:77.4194;stroke-linecap:round;stroke-linejoin:round;stroke-miterlimit:4.094;}
	.st1{fill:none;stroke:#FF94BB;stroke-width:77.4194;stroke-linecap:round;stroke-linejoin:round;stroke-miterlimit:4.094;}
	.st2{clip-path:url(#over-mask_00000144340111319121298440000014104454297430325120_);}
	.st3{fill:#94E4FF;}
	.st4{fill:none;stroke:#94E4FF;stroke-width:25.5484;stroke-miterlimit:4.094;}
	.st5{fill:none;stroke:#94E4FF;stroke-width:21.6774;stroke-miterlimit:4.094;}
	.st6{fill:none;stroke:#94E4FF;stroke-width:22.4516;stroke-miterlimit:4.094;}
</style>
<g id="star_00000033335443651471918780000003949888464070569905_">
	<path id="cyan" class="st0" d="M886.8,1354.8c136.6-531.2-294-1171.2-327.1-1189.5c-33.1-18.3-316.1,560.5-250.3,684.2
		s598.8-341,612.6-420.3s-688.2-121-777.3-7.2S650,821.5,743.5,817.6"/>
	<path id="magenta" class="st1" d="M869.9,1335.4c136.6-531.2-294-1171.2-327.1-1189.5S226.7,706.3,292.5,830s598.8-341,612.6-420.3
		s-688.2-121-777.3-7.2s505.3,399.6,598.8,395.7"/>
	<g id="masking">
		<defs>
			<path id="over-mask" d="M869.9,1374.1c-3.2,0-6.4-0.4-9.7-1.2c-20.7-5.3-33.2-26.4-27.8-47.1c62-241.3-0.5-504.2-72.4-697.1
				c-24.4,21.7-44.4,38.5-54.2,46.6c-18.2,15.1-43.4,35.6-72.6,57.9c46.8,17.8,79.5,26.6,91.7,26.3c21.1-1,39.4,15.7,40.3,37
				c0.9,21.4-15.7,39.4-37,40.3c-32.7,1.4-97.5-19.9-168.9-50c-69.6,47.7-146.5,91.6-203.9,100.8c-61,9.8-87-20.5-97-39.4
				c-21.6-40.6-18.4-112.1,9.5-213.4c-74.8-48-147.7-105-175-158.2c-24.8-48.4-7.8-82.1,4.6-97.9c44.7-57,177.4-77.3,304-83
				C439.8,216.8,478.7,148.8,504,124c25.8-25.3,48.8-16.8,57.6-12c24,13.3,72.1,88.9,98.6,132.7c10.3,17.1,22,37,34.6,59.6
				c80.7,8.3,154.3,21.8,197.3,40.9c51.3,22.8,54.1,54.3,51.1,71.1c-6.4,36.8-64.2,100.3-122,155.8
				c81.7,209.3,155.9,501.4,86.1,772.9C902.9,1362.5,887.2,1374.1,869.9,1374.1z M326.4,811.3c3,0.8,18,3.5,57.1-12.6
				c28.3-11.6,59.7-28.7,92.6-49.3c-24.7-11.8-49-24-72-36c-19.9-10.4-42.7-22.8-67-36.7C319.3,747.7,317.2,793.3,326.4,811.3z
				 M359.4,600.1c25.2,14.8,52.1,29.8,80.6,44.7c39.4,20.6,76.7,38.6,110.6,53.9c62.4-45.5,125.5-98.4,178.8-147.2
				c-27.3-64.8-55.8-123.4-82.8-173.9c-60.8-4.9-128.4-7.4-195.7-6.1c-15.6,33.6-31.6,70.1-47.1,108.2
				C385.8,523.9,371.1,564.1,359.4,600.1z M364,375.5c-3.1,0.2-6.2,0.5-9.3,0.7c-123.9,10.1-183.2,33.3-196.4,50.1
				c-2.3,3,1.6,11.4,3.3,14.8c15.5,30.1,62.1,71.4,130.1,116.7c10.8-31.6,23.5-65.4,37.9-101.3C340.2,430.3,351.8,402.9,364,375.5z
				 M738.9,387.6c16.4,32.6,33.3,68.4,50.2,106.9c33.5-33.5,58.7-61.7,70.8-79.5C838.3,405.1,794.9,395.4,738.9,387.6z M488.8,293.8
				c35.5,0,73.7,1.1,112.3,3.2c-24.7-41.5-46-73.5-60.9-94.2C526.9,223.2,509,254.7,488.8,293.8z"/>
		</defs>
		<clipPath id="over-mask_00000033356781817031998740000008574085441099377806_">
			<use xlink:href="#over_x002D_mask"  style="overflow:visible;"/>
		</clipPath>
		<g id="overs" style="clip-path:url(#over-mask_00000033356781817031998740000008574085441099377806_);">
			<path id="bottom" class="st3" d="M452.7,737.8c80.5,37.4,128.7,58.8,144.6,64.3c15.9,5.5,15.4,9.6-1.4,12.4
				c-77.1-33.3-122.8-54.1-137-62.3C444.6,744,442.6,739.2,452.7,737.8L452.7,737.8z"/>
			<path id="bottom-right" class="st4" d="M753.9,651.5l78.3-72.2"/>
			<path id="top-left" class="st5" d="M298.4,392.9c80.8-9,136.7-12.3,167.5-9.9"/>
			<path id="bottom-left" class="st6" d="M370.2,602.6c-9.4,27.7-16.2,50.2-24.4,84.2"/>
			<path id="top-right" class="st3" d="M701.8,306.1l56.3,103.5h-8.5c-35.3-68.5-55-105.9-58.9-112.1
				C686.7,291.4,690.4,294.3,701.8,306.1L701.8,306.1z"/>
		</g>
	</g>
</g>
</svg>
