<svg cache-id="8dcd3164be61484c95f9bc9d502ac40b" id="eF3qHPTQ18t1" xmlns="http://www.w3.org/2000/svg" xmlns:xlink="http://www.w3.org/1999/xlink" viewBox="0 0 1347 473" shape-rendering="geometricPrecision" text-rendering="geometricPrecision">
<style>
#eF3qHPTQ18t4 {animation: eF3qHPTQ18t4_s_do 5000ms linear 1 normal forwards}@keyframes eF3qHPTQ18t4_s_do { 0% {stroke-dashoffset: 3235.66} 20% {stroke-dashoffset: 0} 100% {stroke-dashoffset: 0}} #eF3qHPTQ18t5 {animation: eF3qHPTQ18t5_s_do 5000ms linear 1 normal forwards}@keyframes eF3qHPTQ18t5_s_do { 0% {stroke-dashoffset: 866.03} 20% {stroke-dashoffset: 866.03} 34% {stroke-dashoffset: 0} 100% {stroke-dashoffset: 0}} #eF3qHPTQ18t6 {animation: eF3qHPTQ18t6_s_do 5000ms linear 1 normal forwards}@keyframes eF3qHPTQ18t6_s_do { 0% {stroke-dashoffset: 291.19} 28% {stroke-dashoffset: 291.19} 34% {stroke-dashoffset: 0} 100% {stroke-dashoffset: 0}} #eF3qHPTQ18t7 {animation: eF3qHPTQ18t7_s_do 5000ms linear 1 normal forwards}@keyframes eF3qHPTQ18t7_s_do { 0% {stroke-dashoffset: 2958.52} 34% {stroke-dashoffset: 2958.52} 88% {stroke-dashoffset: 0} 100% {stroke-dashoffset: 0}} #eF3qHPTQ18t9 {animation: eF3qHPTQ18t9_s_do 5000ms linear 1 normal forwards}@keyframes eF3qHPTQ18t9_s_do { 0% {stroke-dashoffset: 3235.66} 20% {stroke-dashoffset: 0} 100% {stroke-dashoffset: 0}} #eF3qHPTQ18t10 {animation: eF3qHPTQ18t10_s_do 5000ms linear 1 normal forwards}@keyframes eF3qHPTQ18t10_s_do { 0% {stroke-dashoffset: 866.03} 20% {stroke-dashoffset: 866.03} 34% {stroke-dashoffset: 0} 100% {stroke-dashoffset: 0}} #eF3qHPTQ18t11 {animation: eF3qHPTQ18t11_s_do 5000ms linear 1 normal forwards}@keyframes eF3qHPTQ18t11_s_do { 0% {stroke-dashoffset: 291.19} 28% {stroke-dashoffset: 291.19} 34% {stroke-dashoffset: 0} 100% {stroke-dashoffset: 0}} #eF3qHPTQ18t12 {animation: eF3qHPTQ18t12_s_do 5000ms linear 1 normal forwards}@keyframes eF3qHPTQ18t12_s_do { 0% {stroke-dashoffset: 2958.52} 34% {stroke-dashoffset: 2958.52} 88% {stroke-dashoffset: 0} 100% {stroke-dashoffset: 0}} #eF3qHPTQ18t13 {animation: eF3qHPTQ18t13_s_p 5000ms linear 1 normal forwards}@keyframes eF3qHPTQ18t13_s_p { 0% {stroke: none} 82% {stroke: none} 84% {stroke: #94e4ff} 100% {stroke: #94e4ff}} #eF3qHPTQ18t14 {animation-name: eF3qHPTQ18t14_s_p, eF3qHPTQ18t14_s_do;animation-duration: 5000ms;animation-fill-mode: forwards;animation-timing-function: linear;animation-direction: normal;animation-iteration-count: 1;}@keyframes eF3qHPTQ18t14_s_p { 0% {stroke: none} 84% {stroke: none} 86% {stroke: #94e4ff} 100% {stroke: #94e4ff}}@keyframes eF3qHPTQ18t14_s_do { 0% {stroke-dashoffset: -21.71} 84% {stroke-dashoffset: -21.71} 86% {stroke-dashoffset: 0} 100% {stroke-dashoffset: 0}} #eF3qHPTQ18t15 {animation: eF3qHPTQ18t15_s_p 5000ms linear 1 normal forwards}@keyframes eF3qHPTQ18t15_s_p { 0% {stroke: none} 86% {stroke: none} 88% {stroke: #94e4ff} 100% {stroke: #94e4ff}} #eF3qHPTQ18t16 {animation: eF3qHPTQ18t16_f_p 5000ms linear 1 normal forwards}@keyframes eF3qHPTQ18t16_f_p { 0% {fill: none} 86% {fill: none} 88% {fill: #94e4ff} 100% {fill: #94e4ff}}</style>
<g transform="matrix(1.023491 0 0 1.02349-380.600434-815.012411)"><g transform="translate(7 5)"><path id="eF3qHPTQ18t4" d="M390.07,964.61c31.237928.35,65.450775-13.87,131.383747-55.19s149.898821-71.839017,220.746251-68.658294s102.21,18.898294,127.82,30.428294s51.96-16.339999,39.92-21.03-40.7,16.34-51.45,47.84-29.036167,133.85-80.49,140.13-135.705454-128.64-284.79-75.75c0-1.199999,28.243749-23.09,122.094137-33.87s110.082462,17.53,214.685863,24.26c120.530001,1.73,119.539291-92.97,119.539291-92.97s-92.699291,170.2-64.739291,185.69c27.78,13.74,55.026337-61.57,65.93-93.99c0,1.270001-47.500915,90.107987-12.260915,94.647987C969.269998,1052.695983,989.879998,972.92,997.459998,950.18c0,0-44.26,98.510674-14.27,95.31c13.157058.511817,28.216811-21.32,32.260426-36.31c3.787011-15.19,33.019574-33.959999,40.731412.6c0,0-4.461838-25.76-26.133833-17.49-20.458004,9.33-23.108005,53.785973,12.221995,53.2c36.06-1.68,40.4-32.58,32.17-49.55s-31.764932-57.9-9.217466-59.1-16.752534,43.16-16.752534,43.16s37.64-44.38,16.752534-43.06-2.392534,35.01,9.217466,59.000002q11.61,23.990002-9.217466,42.369998q22.988247,8.832838,30.757466-14.25c12.1-41.02212,34.65-99.2,36.31-105.25s-63.26,141.08-21.81,126.68q20.34-1.68,36.3-44.14" transform="translate(.000002 0)" fill="none" stroke="#94e4ff" stroke-width="10" stroke-linecap="round" stroke-linejoin="round" stroke-dashoffset="3235.66" stroke-dasharray="3235.66"/><path id="eF3qHPTQ18t5" d="M1156.59,943.78q-15.79,15.07-39.31,13.58c-23.52-1.49-26.49-11.58-28-23.63s16.82-30.96,31.63-33.33s97.79-8.44,115.36-26.4-13.4-25.24-21.43-5.68-81.07,266.55-97.56,282.23-27.390004,18.1-36.640004,13.73-16.54-17.11-7.45-26.49c6.900662-7.120815,25.35-20.311632,62.53,31.13s95.18,40.578779,94.820001,24.32" transform="translate(-1.069219 0.011282)" fill="none" stroke="#ff94bb" stroke-width="10" stroke-linecap="round" stroke-linejoin="round" stroke-dashoffset="866.03" stroke-dasharray="866.03"/><path id="eF3qHPTQ18t6" d="M1191.82,1001.29q52.404854-11.432537,55.422674-35.36c2.79364-22.15-42.092676-19.78-54.782676,28.2-9.011226,34.070813-5.966681,52.743781,19.95,51.36s37.78-18.777412,47.327147-43.5" transform="translate(.000002 0)" fill="none" stroke="#94e4ff" stroke-width="10" stroke-linecap="round" stroke-linejoin="round" stroke-dashoffset="291.19" stroke-dasharray="291.19"/><path id="eF3qHPTQ18t7" d="M1138.289998,1143.149999c-2.34,9.21,17.230783,21.12,25.090002-5.669999c9.52-43.19,46.149998-101.130001,63.64-57.710001-16.270002-38.83-47.790002,8.31-54.120002,26.64-6.81,14.2-14.65,58.2,12.24,50.51s48.92-79.650674,51.64-93.94c-11.44,46.3-39.38,92.99-15.75,95.21s53.15-81.13,55.6-94.11c0,1.49-48.67,97.66-9.08,94.53s49.665578-78.84,55-95.41c0,.88-45.92,99.48-11.79,93.25s47.205578-79.39,51.77-92.37-32.96,94.11-32.96,94.11s20.535578-93.27,57.34-94.11c45.285578,2.87-28.94,91.37,8.29,93.08s29.565578-80.23,77.025578-93.08q21.55,1.49,10.174422,31.67q11.375578-30.17-10.174422-31.67c-22.93,0-72.635578,90.72-21.27,94.11s76.39-119.440739,79.730588-128.76c0,0-43.600588,121.131282-45.490588,127.73c2.99,9.11,22.53-103.88,61.04-91.87s-52.46,94.26,29.09,95.02c19.560001.57,60.162249-4.08,77.80005-72.69s-37.980628-151.28-42.255628-153.65-40.83,72.4-32.33,88.37s77.35-44.045,79.13-54.29-88.89-15.63-100.4-.93s65.27,51.62,77.34,51.11" transform="translate(.234424 0.000001)" fill="none" stroke="#94e4ff" stroke-width="10" stroke-linecap="round" stroke-linejoin="round" stroke-dashoffset="2958.52" stroke-dasharray="2958.52"/></g><g><path id="eF3qHPTQ18t9" d="M390.07,964.61c31.237928.35,65.450775-13.87,131.383747-55.19s149.898821-71.839017,220.746251-68.658294s102.21,18.898294,127.82,30.428294s51.96-16.339999,39.92-21.03-40.7,16.34-51.45,47.84-29.036167,133.85-80.49,140.13-135.705454-128.64-284.79-75.75c0-1.199999,28.243749-23.09,122.094137-33.87s110.082462,17.53,214.685863,24.26c120.530001,1.73,119.539291-92.97,119.539291-92.97s-92.699291,170.2-64.739291,185.69c27.78,13.74,55.026337-61.57,65.93-93.99c0,1.270001-47.500915,90.107987-12.260915,94.647987C969.269998,1052.695983,989.879998,972.92,997.459998,950.18c0,0-44.26,98.510674-14.27,95.31c13.157058.511817,28.216811-21.32,32.260426-36.31c3.787011-15.19,33.019574-33.959999,40.731412.6c0,0-4.461838-25.76-26.133833-17.49-20.458004,9.33-23.108005,53.785973,12.221995,53.2c36.06-1.68,40.4-32.58,32.17-49.55s-31.764932-57.9-9.217466-59.1-16.752534,43.16-16.752534,43.16s37.64-44.38,16.752534-43.06-2.392534,35.01,9.217466,59.000002q11.61,23.990002-9.217466,42.369998q22.988247,8.832838,30.757466-14.25c12.1-41.02212,34.65-99.2,36.31-105.25s-63.26,141.08-21.81,126.68q20.34-1.68,36.3-44.14" transform="translate(4.813325 2.487391)" fill="none" stroke="#ff94bb" stroke-width="10" stroke-linecap="round" stroke-linejoin="round" stroke-dashoffset="3235.66" stroke-dasharray="3235.66"/><path id="eF3qHPTQ18t10" d="M1156.59,943.78q-15.79,15.07-39.31,13.58c-23.52-1.49-26.49-11.58-28-23.63s16.82-30.96,31.63-33.33s97.79-8.44,115.36-26.4-13.4-25.24-21.43-5.68-81.07,266.55-97.56,282.23-27.390004,18.1-36.640004,13.73-16.54-17.11-7.45-26.49c6.900662-7.120815,25.35-20.311632,62.53,31.13s95.18,40.578779,94.820001,24.32" transform="translate(3.744104 2.498673)" fill="none" stroke="#94e4ff" stroke-width="10" stroke-linecap="round" stroke-linejoin="round" stroke-dashoffset="866.03" stroke-dasharray="866.03"/><path id="eF3qHPTQ18t11" d="M1191.82,1001.29q52.404854-11.432537,55.422674-35.36c2.79364-22.15-42.092676-19.78-54.782676,28.2-9.011226,34.070813-5.966681,52.743781,19.95,51.36s37.78-18.777412,47.327147-43.5" transform="translate(4.813325 2.487391)" fill="none" stroke="#ff94bb" stroke-width="10" stroke-linecap="round" stroke-linejoin="round" stroke-dashoffset="291.19" stroke-dasharray="291.19"/><path id="eF3qHPTQ18t12" d="M1138.289998,1143.149999c-2.34,9.21,17.230783,21.12,25.090002-5.669999c9.52-43.19,46.149998-101.130001,63.64-57.710001-16.270002-38.83-47.790002,8.31-54.120002,26.64-6.81,14.2-14.65,58.2,12.24,50.51s48.92-79.650674,51.64-93.94c-11.44,46.3-39.38,92.99-15.75,95.21s53.15-81.13,55.6-94.11c0,1.49-48.67,97.66-9.08,94.53s49.665578-78.84,55-95.41c0,.88-45.92,99.48-11.79,93.25s47.205578-79.39,51.77-92.37-32.96,94.11-32.96,94.11s20.535578-93.27,57.34-94.11c45.285578,2.87-28.94,91.37,8.29,93.08s29.565578-80.23,77.025578-93.08q21.55,1.49,10.174422,31.67q11.375578-30.17-10.174422-31.67c-22.93,0-72.635578,90.72-21.27,94.11s76.39-119.440739,79.730588-128.76c0,0-43.600588,121.131282-45.490588,127.73c2.99,9.11,22.53-103.88,61.04-91.87s-52.46,94.26,29.09,95.02c19.560001.57,60.162249-4.08,77.80005-72.69s-37.980628-151.28-42.255628-153.65-40.83,72.4-32.33,88.37s77.35-44.045,79.13-54.29-88.89-15.63-100.4-.93s65.27,51.62,77.34,51.11" transform="translate(5.047747 2.487392)" fill="none" stroke="#ff94bb" stroke-width="10" stroke-linecap="round" stroke-linejoin="round" stroke-dashoffset="2958.52" stroke-dasharray="2958.52"/><path id="eF3qHPTQ18t13" d="M1643.245718,1001.295045l10.12-9.320001" transform="translate(-.060281 0.482253)" fill="none" stroke-width="3.3"/><path id="eF3qHPTQ18t14" d="M1584.361875,968.375714q15.66-1.74,21.64-1.278323" transform="translate(.000001 0)" fill="none" stroke-width="2.8" stroke-dashoffset="-21.71" stroke-dasharray="21.71"/><path id="eF3qHPTQ18t15" d="M1593.548553,995.366779c-1.211285,3.5715-2.094838,6.483697-3.149655,10.880076" transform="translate(.086292 0.086291)" fill="none" stroke-width="2.9"/><path id="eF3qHPTQ18t16" d="M1604.281707,1012.92729q15.6,7.24,18.68,8.3t-.18,1.6q-14.94-6.45458-17.7-8.04729t-.8-1.85271Z" fill="none" stroke-width="4.096"/></g></g></svg>
